<svg xmlns:xlink="http://www.w3.org/1999/xlink" xmlns="http://www.w3.org/2000/svg" class="svg-icon" aria-hidden="true" width="38" height="37" viewBox="0 0 38 37"><defs><style>.slow-cooker-circle{fill:#f08a0e;}.slow-cooker-path{fill:#fff;}</style></defs><g transform="translate(-1411 -3482)"><ellipse class="slow-cooker-circle" cx="19" cy="18.5" rx="19" ry="18.5" transform="translate(1411 3482)" fill="#F08A0E"></ellipse><g transform="translate(381.516 3015.043)"><path class="slow-cooker-path" d="M1039.484,544.335v-1.251a3.589,3.589,0,0,1,.713-.232,9.877,9.877,0,0,1,1.089-.01l.037-.679h15.091l.035.679a9.022,9.022,0,0,1,1.049.01,4.193,4.193,0,0,1,.754.232v1.251a1.93,1.93,0,0,1-.585.3,10.529,10.529,0,0,1-1.235.014v.5c0,2.181-.013,4.362.01,6.542,0,.439-.144.564-.548.528-.286-.025-.577,0-.874,0-.017.264-.031.48-.045.7h-1.738l-.049-.666h-8.647l-.043.659h-1.765v-.693c-.315,0-.605-.02-.892,0-.4.036-.553-.089-.548-.528.023-2.181.011-4.362.011-6.542v-.425c-.067-.036-.09-.059-.114-.06a9.258,9.258,0,0,1-1.122-.03A2.027,2.027,0,0,1,1039.484,544.335Zm10.248,5.053a.864.864,0,1,0-1.729,0,.864.864,0,0,0,1.729,0Z" transform="translate(0 -58.85)" fill="#FFFFFF"></path><path class="slow-cooker-path" d="M1060.414,482.38v-1.648c.743-.138,1.5-.3,2.257-.414s1.513-.194,2.272-.266c.267-.025.359-.122.344-.387a9.912,9.912,0,0,1,0-1.041.6.6,0,0,1,.683-.662q2.084-.009,4.168,0a.6.6,0,0,1,.676.669c.017.442,0,.885,0,1.317l4.875.741v1.691Zm5.276-2.447h4.724c0-.426.021-.855-.015-1.279a.432.432,0,0,0-.312-.281q-2.022-.029-4.045,0a.47.47,0,0,0-.336.308A12.43,12.43,0,0,0,1065.69,479.933Z" transform="translate(-19.184 0)" fill="#FFFFFF"></path></g></g></svg>