<svg xmlns:xlink="http://www.w3.org/1999/xlink" xmlns="http://www.w3.org/2000/svg" class="svg-icon" aria-hidden="true" width="38" height="38" viewBox="0 0 38 38"><defs><style>.fork-knife-circle{fill:#232323;}.fork-knife-path{fill:#fff;}</style></defs><g transform="translate(-1411 -3679)"><circle class="fork-knife-circle" cx="19" cy="19" r="19" transform="translate(1411 3679)" fill="#232323"></circle><path class="fork-knife-path" d="M1042.118-206.656c.874-1.909,1.394-3.9,2.566-5.367,1.188-1.489,3.02-2.464,4.57-3.664l.388.481-5.252,4.982.527.546,5.214-5.119.466.433-5.136,5.207.562.529,4.639-5.574.838.782-5.108,5.209.37.337,5.01-5.253.555.471a4.38,4.38,0,0,1-.416.908,26.527,26.527,0,0,1-2.856,3.519,14.5,14.5,0,0,1-3.193,1.851c-.335.174-.818.087-1.126.286-.731.473-1.4,1.044-2.089,1.576a22.127,22.127,0,0,0,1.6,2.008c1.974,1.981,4.03,3.882,5.961,5.9.286.3.074,1.076.093,1.631-.594-.014-1.405.217-1.745-.083-1.593-1.409-3.073-2.949-4.56-4.473-.938-.961-1.818-1.978-2.888-3.148-1.881,1.9-3.565,3.6-5.252,5.3-.711.716-1.419,1.436-2.144,2.138-.64.619-1.325,1.494-2.247.556s-.059-1.617.574-2.252c2.374-2.379,4.756-4.75,7.237-7.225l-10.061-9.912.313-.617a9.987,9.987,0,0,1,2.825.773c2.5,1.581,4.911,3.3,7.307,5.041A29.2,29.2,0,0,1,1042.118-206.656Z" transform="translate(388.789 3902.688)" fill="#FFFFFF"></path></g></svg>