<svg xmlns:xlink="http://www.w3.org/1999/xlink" xmlns="http://www.w3.org/2000/svg" class="svg-icon" aria-hidden="true" width="38" height="38" viewBox="0 0 38 38"><defs>vegan</defs><g id="Group_4621" data-name="Group 4621" transform="translate(-953 -311)"><circle id="Ellipse_97" data-name="Ellipse 97" cx="19" cy="19" r="19" transform="translate(953 311)" fill="#0DAB20"></circle><path id="Path_30625" data-name="Path 30625" d="M17.264,12.731S15.7,8.959,12.97,8.6c0,0,.408.447,1.047,1.263a37.325,37.325,0,0,1,7.157,14.979s1.982-16.407,10.9-20.481c0,0-7.873,8.7-9.635,26.758H19.907s-.55-10.681-5.4-16.848c0,0-3.744.33-5.065-2.2S8.455,6.9,6.8,4.362C19.063,3.334,17.264,12.731,17.264,12.731Z" transform="translate(952.197 317.781)" fill="#FFFFFF"></path></g></svg>